<svg width="31" height="33" viewBox="0 0 31 33" fill="none" xmlns="http://www.w3.org/2000/svg">
<path d="M15.2936 11.2776C12.496 11.2684 10.2058 13.6411 10.197 16.5578C10.1882 19.4744 12.4641 21.8621 15.2617 21.8713C18.0593 21.8805 20.3495 19.5078 20.3583 16.5911C20.3671 13.6745 18.0912 11.2868 15.2936 11.2776ZM30.5158 16.6245C30.5223 14.4311 30.5479 12.2575 30.4364 10.0677C30.3259 7.52417 29.7762 5.26532 27.998 3.3998C26.216 1.5303 24.0567 0.94702 21.6177 0.815825C19.5142 0.685731 17.4293 0.698751 15.3292 0.691853C13.2253 0.684942 11.1405 0.658225 9.04001 0.774509C6.60032 0.889679 4.43368 1.46272 2.64434 3.31652C0.851178 5.17428 0.29175 7.42551 0.165954 9.96825C0.0412085 12.1613 0.0537345 14.3349 0.0471555 16.5244C0.0405765 18.7139 0.0149761 20.8914 0.126552 23.0812C0.237064 25.6248 0.786752 27.8836 2.56491 29.7491C4.34688 31.6186 6.50623 32.2019 8.94518 32.3331C11.0487 32.4632 13.1336 32.4502 15.2337 32.4571C17.3376 32.464 19.4224 32.4907 21.5229 32.3744C23.9626 32.2592 26.1292 31.6862 27.9186 29.8324C29.7117 27.9746 30.2712 25.7234 30.397 23.1807C30.5255 20.9916 30.5092 18.8179 30.5158 16.6245ZM15.2532 24.7244C10.9272 24.7102 7.44684 21.0588 7.46039 16.5488C7.47395 12.0387 10.9762 8.41032 15.3021 8.42453C19.6281 8.43874 23.1084 12.0901 23.0949 16.6001C23.0813 21.1102 19.5791 24.7386 15.2532 24.7244ZM23.4348 10.0208C22.4248 10.0175 21.6117 9.16449 21.6149 8.11148C21.618 7.05846 22.4362 6.21079 23.4463 6.2141C24.4563 6.21742 25.2694 7.07046 25.2662 8.12347C25.2658 8.37351 25.218 8.62101 25.1257 8.85178C25.0333 9.08254 24.8982 9.29205 24.7281 9.4683C24.558 9.64455 24.3562 9.78408 24.1343 9.87889C23.9124 9.97371 23.6747 10.0219 23.4348 10.0208Z" fill="white"/>
</svg>
