<svg width="301" height="39" viewBox="0 0 301 39" fill="none" xmlns="http://www.w3.org/2000/svg">
<path d="M18.5938 24.1406H8.32031L6.36719 30H0.136719L10.7227 1.5625H16.1523L26.7969 30H20.5664L18.5938 24.1406ZM9.90234 19.3945H17.0117L13.4375 8.75L9.90234 19.3945ZM31.8398 8.86719L32.0156 11.3086C33.526 9.42057 35.5508 8.47656 38.0898 8.47656C40.3294 8.47656 41.9961 9.13411 43.0898 10.4492C44.1836 11.7643 44.7435 13.7305 44.7695 16.3477V30H39.125V16.4844C39.125 15.2865 38.8646 14.4206 38.3438 13.8867C37.8229 13.3398 36.957 13.0664 35.7461 13.0664C34.1576 13.0664 32.9661 13.7435 32.1719 15.0977V30H26.5273V8.86719H31.8398ZM53.5234 30H47.8594V8.86719H53.5234V30ZM47.5273 3.39844C47.5273 2.55208 47.8073 1.85547 48.3672 1.30859C48.9401 0.761719 49.7148 0.488281 50.6914 0.488281C51.6549 0.488281 52.4232 0.761719 52.9961 1.30859C53.569 1.85547 53.8555 2.55208 53.8555 3.39844C53.8555 4.25781 53.5625 4.96094 52.9766 5.50781C52.4036 6.05469 51.6419 6.32812 50.6914 6.32812C49.7409 6.32812 48.9727 6.05469 48.3867 5.50781C47.8138 4.96094 47.5273 4.25781 47.5273 3.39844ZM61.9844 8.86719L62.1602 11.2305C63.6576 9.39453 65.6823 8.47656 68.2344 8.47656C70.9557 8.47656 72.8242 9.55078 73.8398 11.6992C75.3242 9.55078 77.4401 8.47656 80.1875 8.47656C82.4792 8.47656 84.1849 9.14714 85.3047 10.4883C86.4245 11.8164 86.9844 13.8216 86.9844 16.5039V30H81.3203V16.5234C81.3203 15.3255 81.0859 14.4531 80.6172 13.9062C80.1484 13.3464 79.3216 13.0664 78.1367 13.0664C76.444 13.0664 75.2721 13.8737 74.6211 15.4883L74.6406 30H68.9961V16.543C68.9961 15.319 68.7552 14.4336 68.2734 13.8867C67.7917 13.3398 66.9714 13.0664 65.8125 13.0664C64.2109 13.0664 63.0521 13.7305 62.3359 15.0586V30H56.6914V8.86719H61.9844ZM99.5664 30.3906C96.4674 30.3906 93.9414 29.4401 91.9883 27.5391C90.0482 25.638 89.0781 23.1055 89.0781 19.9414V19.3945C89.0781 17.2721 89.4883 15.3776 90.3086 13.7109C91.1289 12.0312 92.2878 10.7422 93.7852 9.84375C95.2956 8.93229 97.0143 8.47656 98.9414 8.47656C101.832 8.47656 104.104 9.38802 105.758 11.2109C107.424 13.0339 108.258 15.6185 108.258 18.9648V21.2695H94.8008C94.9831 22.6497 95.5299 23.7565 96.4414 24.5898C97.3659 25.4232 98.5312 25.8398 99.9375 25.8398C102.112 25.8398 103.811 25.0521 105.035 23.4766L107.809 26.582C106.962 27.7799 105.816 28.7174 104.371 29.3945C102.926 30.0586 101.324 30.3906 99.5664 30.3906ZM98.9219 13.0469C97.8021 13.0469 96.8906 13.4245 96.1875 14.1797C95.4974 14.9349 95.0547 16.0156 94.8594 17.4219H102.711V16.9727C102.685 15.7227 102.346 14.7591 101.695 14.082C101.044 13.3919 100.12 13.0469 98.9219 13.0469ZM135.922 17.6758H124.672V25.293H137.875V30H118.812V1.5625H137.836V6.30859H124.672V13.0859H135.922V17.6758ZM147.488 15.1758L151.043 8.86719H157.078L151.062 19.2188L157.332 30H151.277L147.508 23.3594L143.758 30H137.684L143.953 19.2188L137.957 8.86719H144.012L147.488 15.1758ZM177.316 19.6289C177.316 22.8841 176.574 25.4948 175.09 27.4609C173.618 29.4141 171.626 30.3906 169.113 30.3906C166.978 30.3906 165.253 29.6484 163.938 28.1641V38.125H158.293V8.86719H163.527L163.723 10.9375C165.09 9.29688 166.874 8.47656 169.074 8.47656C171.678 8.47656 173.703 9.4401 175.148 11.3672C176.594 13.2943 177.316 15.9505 177.316 19.3359V19.6289ZM171.672 19.2188C171.672 17.2526 171.32 15.7357 170.617 14.668C169.927 13.6003 168.918 13.0664 167.59 13.0664C165.819 13.0664 164.602 13.7435 163.938 15.0977V23.75C164.628 25.1432 165.858 25.8398 167.629 25.8398C170.324 25.8398 171.672 23.6328 171.672 19.2188ZM189.059 30.3906C185.96 30.3906 183.434 29.4401 181.48 27.5391C179.54 25.638 178.57 23.1055 178.57 19.9414V19.3945C178.57 17.2721 178.98 15.3776 179.801 13.7109C180.621 12.0312 181.78 10.7422 183.277 9.84375C184.788 8.93229 186.507 8.47656 188.434 8.47656C191.324 8.47656 193.596 9.38802 195.25 11.2109C196.917 13.0339 197.75 15.6185 197.75 18.9648V21.2695H184.293C184.475 22.6497 185.022 23.7565 185.934 24.5898C186.858 25.4232 188.023 25.8398 189.43 25.8398C191.604 25.8398 193.303 25.0521 194.527 23.4766L197.301 26.582C196.454 27.7799 195.309 28.7174 193.863 29.3945C192.418 30.0586 190.816 30.3906 189.059 30.3906ZM188.414 13.0469C187.294 13.0469 186.383 13.4245 185.68 14.1797C184.99 14.9349 184.547 16.0156 184.352 17.4219H192.203V16.9727C192.177 15.7227 191.839 14.7591 191.188 14.082C190.536 13.3919 189.612 13.0469 188.414 13.0469ZM211.348 14.1602C210.579 14.056 209.902 14.0039 209.316 14.0039C207.181 14.0039 205.781 14.7266 205.117 16.1719V30H199.473V8.86719H204.805L204.961 11.3867C206.094 9.44661 207.663 8.47656 209.668 8.47656C210.293 8.47656 210.879 8.5612 211.426 8.73047L211.348 14.1602ZM218.539 30H212.875V8.86719H218.539V30ZM212.543 3.39844C212.543 2.55208 212.823 1.85547 213.383 1.30859C213.956 0.761719 214.73 0.488281 215.707 0.488281C216.671 0.488281 217.439 0.761719 218.012 1.30859C218.585 1.85547 218.871 2.55208 218.871 3.39844C218.871 4.25781 218.578 4.96094 217.992 5.50781C217.419 6.05469 216.658 6.32812 215.707 6.32812C214.757 6.32812 213.988 6.05469 213.402 5.50781C212.829 4.96094 212.543 4.25781 212.543 3.39844ZM231.434 30.3906C228.335 30.3906 225.809 29.4401 223.855 27.5391C221.915 25.638 220.945 23.1055 220.945 19.9414V19.3945C220.945 17.2721 221.355 15.3776 222.176 13.7109C222.996 12.0312 224.155 10.7422 225.652 9.84375C227.163 8.93229 228.882 8.47656 230.809 8.47656C233.699 8.47656 235.971 9.38802 237.625 11.2109C239.292 13.0339 240.125 15.6185 240.125 18.9648V21.2695H226.668C226.85 22.6497 227.397 23.7565 228.309 24.5898C229.233 25.4232 230.398 25.8398 231.805 25.8398C233.979 25.8398 235.678 25.0521 236.902 23.4766L239.676 26.582C238.829 27.7799 237.684 28.7174 236.238 29.3945C234.793 30.0586 233.191 30.3906 231.434 30.3906ZM230.789 13.0469C229.669 13.0469 228.758 13.4245 228.055 14.1797C227.365 14.9349 226.922 16.0156 226.727 17.4219H234.578V16.9727C234.552 15.7227 234.214 14.7591 233.562 14.082C232.911 13.3919 231.987 13.0469 230.789 13.0469ZM247.043 8.86719L247.219 11.3086C248.729 9.42057 250.754 8.47656 253.293 8.47656C255.533 8.47656 257.199 9.13411 258.293 10.4492C259.387 11.7643 259.947 13.7305 259.973 16.3477V30H254.328V16.4844C254.328 15.2865 254.068 14.4206 253.547 13.8867C253.026 13.3398 252.16 13.0664 250.949 13.0664C249.361 13.0664 248.169 13.7435 247.375 15.0977V30H241.73V8.86719H247.043ZM271.559 25.8398C272.6 25.8398 273.447 25.5534 274.098 24.9805C274.749 24.4076 275.087 23.6458 275.113 22.6953H280.406C280.393 24.1276 280.003 25.4427 279.234 26.6406C278.466 27.8255 277.411 28.75 276.07 29.4141C274.742 30.0651 273.271 30.3906 271.656 30.3906C268.635 30.3906 266.253 29.4336 264.508 27.5195C262.763 25.5924 261.891 22.9362 261.891 19.5508V19.1797C261.891 15.9245 262.757 13.3268 264.488 11.3867C266.22 9.44661 268.596 8.47656 271.617 8.47656C274.26 8.47656 276.376 9.23177 277.965 10.7422C279.566 12.2396 280.38 14.2383 280.406 16.7383H275.113C275.087 15.6445 274.749 14.7591 274.098 14.082C273.447 13.3919 272.587 13.0469 271.52 13.0469C270.204 13.0469 269.208 13.5286 268.531 14.4922C267.867 15.4427 267.535 16.9922 267.535 19.1406V19.7266C267.535 21.901 267.867 23.4635 268.531 24.4141C269.195 25.3646 270.204 25.8398 271.559 25.8398ZM291.855 30.3906C288.757 30.3906 286.23 29.4401 284.277 27.5391C282.337 25.638 281.367 23.1055 281.367 19.9414V19.3945C281.367 17.2721 281.777 15.3776 282.598 13.7109C283.418 12.0312 284.577 10.7422 286.074 9.84375C287.585 8.93229 289.303 8.47656 291.23 8.47656C294.121 8.47656 296.393 9.38802 298.047 11.2109C299.714 13.0339 300.547 15.6185 300.547 18.9648V21.2695H287.09C287.272 22.6497 287.819 23.7565 288.73 24.5898C289.655 25.4232 290.82 25.8398 292.227 25.8398C294.401 25.8398 296.1 25.0521 297.324 23.4766L300.098 26.582C299.251 27.7799 298.105 28.7174 296.66 29.3945C295.215 30.0586 293.613 30.3906 291.855 30.3906ZM291.211 13.0469C290.091 13.0469 289.18 13.4245 288.477 14.1797C287.786 14.9349 287.344 16.0156 287.148 17.4219H295V16.9727C294.974 15.7227 294.635 14.7591 293.984 14.082C293.333 13.3919 292.409 13.0469 291.211 13.0469Z" fill="white"/>
</svg>
