<svg width="86" height="69" viewBox="0 0 86 69" fill="none" xmlns="http://www.w3.org/2000/svg">
<path d="M34.1328 2.99032C34.9885 3.15964 35.708 3.54039 36.1977 4.09238L36.2364 4.12894L36.2751 4.16549L69.2754 35.6531L69.3068 35.6882L69.3487 35.7182C70.7385 36.86 70.1786 38.5768 69.7259 39.4985C68.7785 41.4276 66.6035 42.3625 65.3494 42.7572L10.4065 56.8212L10.3419 56.8373L10.2847 56.8549C9.34103 57.1449 8.22604 57.141 7.59902 57.0169C6.96462 56.8914 6.05101 56.4939 5.53412 55.9149L5.46732 55.8366L5.38668 55.7701C4.30794 54.8849 4.07518 53.134 4.82211 51.6132L27.0134 6.42859C27.977 4.46662 30.2068 3.53538 31.4471 3.15234C32.3516 2.87624 33.2771 2.821 34.1328 2.99032ZM34.9412 1.34437C33.7535 1.10936 32.4171 1.17721 31.1017 1.58148C28.4634 2.38856 26.2104 3.94369 25.1692 6.06367L2.97793 51.2482C1.93675 53.3682 2.24966 55.7634 3.8468 57.0763C4.56731 57.8834 5.77589 58.4549 6.80126 58.6578C7.82663 58.8606 9.32531 58.8249 10.6482 58.4221L65.6524 44.3486C68.2833 43.54 70.5437 41.9863 71.5848 39.8664C72.626 37.7464 72.5037 35.7212 70.9066 34.4083L37.8957 2.92585C37.1751 2.1187 36.1362 1.58084 34.9412 1.34437Z" fill="url(#paint0_diamond_506:239)"/>
<path d="M31.8307 44.1583H21.6833L19.9112 49.938H12L23.2655 19H30.2273L41.5772 49.938H33.6239L31.8307 44.1583ZM23.4554 38.4H30.0586L26.7464 27.6694L23.4554 38.4Z" fill="white"/>
<path d="M62.8846 36.8276H51.2393V44.2008H64.9942V49.938H43.8345V19H65.0364V24.7584H51.2393V31.2817H62.8846V36.8276Z" fill="white"/>
<defs>
<radialGradient id="paint0_diamond_506:239" cx="0" cy="0" r="1" gradientUnits="userSpaceOnUse" gradientTransform="translate(62.834 69.7451) rotate(-99.0052) scale(128.087 6705.25)">
<stop offset="0.0364583" stop-color="#1775D9"/>
<stop offset="1" stop-color="#55EAEA"/>
</radialGradient>
</defs>
</svg>
