<svg width="22" height="22" viewBox="0 0 22 22" fill="none" xmlns="http://www.w3.org/2000/svg">
<path d="M9.80775 1C12.1429 1.00265 14.3817 1.9314 16.0329 3.58249C17.6841 5.23359 18.6129 7.4722 18.6155 9.8072C18.6179 11.8626 17.8981 13.8534 16.5817 15.432L20.7618 19.6119C20.9143 19.7644 21 19.9712 21 20.1869C21 20.4025 20.9143 20.6093 20.7618 20.7618C20.6093 20.9143 20.4025 21 20.1868 21C19.9711 21 19.7643 20.9143 19.6118 20.7618V20.7618L15.4317 16.5807C13.8533 17.8967 11.8628 18.6165 9.80775 18.6144C7.4726 18.6118 5.23386 17.683 3.58265 16.0319C1.93145 14.3808 1.00265 12.1422 1 9.8072C1.00265 7.4722 1.93145 5.23359 3.58265 3.58249C5.23386 1.9314 7.4726 1.00265 9.80775 1ZM9.80775 2.62495C7.90361 2.62726 6.07813 3.38475 4.73181 4.73121C3.38549 6.07768 2.62828 7.90318 2.6263 9.8072C2.62861 11.711 3.38597 13.5362 4.73225 14.8824C6.07854 16.2286 7.90382 16.9859 9.80775 16.9882C11.7117 16.9859 13.537 16.2286 14.8833 14.8824C16.2295 13.5362 16.9869 11.711 16.9892 9.8072C16.9869 7.90339 16.2295 6.07822 14.8833 4.73202C13.537 3.38582 11.7117 2.62851 9.80775 2.6262V2.62495Z" fill="white" stroke="white" stroke-width="0.5"/>
</svg>
